<svg width="200" height="200" viewBox="0 0 200 200" fill="none" xmlns="http://www.w3.org/2000/svg">
  <!-- Main sphere with gradient -->
  <defs>
    <linearGradient id="sphereGradient" x1="0%" y1="0%" x2="100%" y2="100%">
      <stop offset="0%" style="stop-color:#3B82F6;stop-opacity:1" />
      <stop offset="50%" style="stop-color:#60A5FA;stop-opacity:1" />
      <stop offset="100%" style="stop-color:#93C5FD;stop-opacity:1" />
    </linearGradient>
    <radialGradient id="glowGradient" cx="50%" cy="50%" r="50%">
      <stop offset="0%" style="stop-color:#FFFFFF;stop-opacity:0.8" />
      <stop offset="70%" style="stop-color:#3B82F6;stop-opacity:0.3" />
      <stop offset="100%" style="stop-color:#3B82F6;stop-opacity:0" />
    </radialGradient>
    <filter id="glow">
      <feGaussianBlur stdDeviation="3" result="coloredBlur"/>
      <feMerge>
        <feMergeNode in="coloredBlur"/>
        <feMergeNode in="SourceGraphic"/>
      </feMerge>
    </filter>
  </defs>
  
  <!-- Outer glow -->
  <circle cx="100" cy="100" r="70" fill="url(#glowGradient)" opacity="0.5"/>
  
  <!-- Main sphere -->
  <circle cx="100" cy="100" r="50" fill="url(#sphereGradient)" filter="url(#glow)"/>
  
  <!-- Highlight on sphere -->
  <ellipse cx="85" cy="85" rx="20" ry="25" fill="white" opacity="0.3"/>
  
  <!-- Large sparkle (top right) -->
  <g transform="translate(140, 60)">
    <path d="M 0,-15 L 2,-2 L 15,0 L 2,2 L 0,15 L -2,2 L -15,0 L -2,-2 Z" fill="#FBBF24" filter="url(#glow)"/>
  </g>
  
  <!-- Medium sparkle (top left) -->
  <g transform="translate(55, 50)">
    <path d="M 0,-10 L 1.5,-1.5 L 10,0 L 1.5,1.5 L 0,10 L -1.5,1.5 L -10,0 L -1.5,-1.5 Z" fill="#FBBF24" filter="url(#glow)"/>
  </g>
  
  <!-- Small sparkle (bottom right) -->
  <g transform="translate(145, 135)">
    <path d="M 0,-7 L 1,-1 L 7,0 L 1,1 L 0,7 L -1,1 L -7,0 L -1,-1 Z" fill="#FBBF24" filter="url(#glow)"/>
  </g>
  
  <!-- Tiny sparkle (left) -->
  <g transform="translate(40, 105)">
    <path d="M 0,-5 L 0.7,-0.7 L 5,0 L 0.7,0.7 L 0,5 L -0.7,0.7 L -5,0 L -0.7,-0.7 Z" fill="#FBBF24" filter="url(#glow)"/>
  </g>
  
  <!-- 3D printing layer lines on sphere -->
  <path d="M 60,100 Q 80,98 100,98 Q 120,98 140,100" stroke="white" stroke-width="1" opacity="0.2" fill="none"/>
  <path d="M 65,110 Q 82.5,108 100,108 Q 117.5,108 135,110" stroke="white" stroke-width="1" opacity="0.2" fill="none"/>
  <path d="M 70,120 Q 85,118 100,118 Q 115,118 130,120" stroke="white" stroke-width="1" opacity="0.2" fill="none"/>
</svg>

